<svg xmlns="http://www.w3.org/2000/svg" width="500" height="232.23" viewBox="0 0 500 232.23">
  <defs>
    <style>
      .cls-1 {
        fill: #fff;
      }
    </style>
  </defs>
  <g id="Gruppe_205702" data-name="Gruppe 205702" transform="translate(-3 0.001)">
    <g id="Gruppe_207561" data-name="Gruppe 207561" transform="translate(3 -0.001)">
      <path id="Pfad_132769" data-name="Pfad 132769" class="cls-1" d="M20.574,171.568H192.145V0H20.574Zm58.094-71.4a1.351,1.351,0,0,1-1.348,1.348h-6.67a1.353,1.353,0,0,1-1.351-1.348V79.541H50.156v20.627a1.352,1.352,0,0,1-1.348,1.348H42.135a1.352,1.352,0,0,1-1.348-1.348V52.713a1.3,1.3,0,0,1,1.348-1.281h6.673a1.3,1.3,0,0,1,1.348,1.281V71.318H69.3V52.713a1.3,1.3,0,0,1,1.351-1.281h6.67a1.3,1.3,0,0,1,1.348,1.281Zm45.007-33.1c0,11.929-9.031,15.772-19.413,15.772-1.754,0-4.45-.2-6-.268v17.592a1.3,1.3,0,0,1-1.281,1.348H90.244a1.353,1.353,0,0,1-1.351-1.348V53.793c0-1.348.808-1.818,2.156-2.022a92.036,92.036,0,0,1,13.213-.875c10.382,0,19.413,3.639,19.413,15.57Zm17.172,33.1a1.352,1.352,0,0,1-1.345,1.348h-6.676a1.352,1.352,0,0,1-1.345-1.348V52.713a1.3,1.3,0,0,1,1.345-1.281H139.5a1.3,1.3,0,0,1,1.345,1.281Z" transform="translate(39.46)"/>
      <path id="Pfad_132770" data-name="Pfad 132770" class="cls-1" d="M53.2,20.1c-1.415,0-4.785.134-6,.268V36.409c1.08.067,4.853.2,6,.2,7.28,0,10.111-2.7,10.111-8.092v-.6c0-5.664-3.37-7.82-10.111-7.82" transform="translate(90.524 38.547)"/>
      <path id="Pfad_132771" data-name="Pfad 132771" class="cls-1" d="M56.034,9.921H0V212.568H202.651V156.537H56.034Z" transform="translate(0 19.027)"/>
      <path id="Pfad_132772" data-name="Pfad 132772" class="cls-1" d="M88.8,67.519h6.673a1.355,1.355,0,0,0,1.351-1.348V45.547h19.142V66.171a1.352,1.352,0,0,0,1.348,1.348h6.673a1.352,1.352,0,0,0,1.348-1.348V18.719a1.3,1.3,0,0,0-1.348-1.281h-6.673a1.3,1.3,0,0,0-1.348,1.281V37.324H96.825V18.719a1.3,1.3,0,0,0-1.351-1.281H88.8a1.3,1.3,0,0,0-1.348,1.281V66.171A1.352,1.352,0,0,0,88.8,67.519m56.215.54a18.27,18.27,0,0,0,9.507-2.965v1.077a1.352,1.352,0,0,0,1.348,1.348H161.6a1.351,1.351,0,0,0,1.348-1.348V41.905c0-8.626-5.258-12.874-14.829-12.874a58.061,58.061,0,0,0-11.255,1.08c-.878.2-1.281.674-1.281,1.415v4.313c0,.945.54,1.147,1.214,1.147h.338a106.589,106.589,0,0,1,10.983-.54c3.977,0,5.932,1.08,5.932,5.46v2.968h-4.243c-11.73,0-16.452,3.977-16.452,11.66V56.8c0,9.1,6.069,11.258,11.66,11.258m-2.69-11.526c0-3.773,1.345-5.728,7.482-5.728h4.243V59.1a14.746,14.746,0,0,1-6.872,1.885c-3.373,0-4.853-.875-4.853-4.179Zm33.7-8.089,9.232,5.664c2.156,1.348,2.968,2.156,2.968,3.437,0,1.821-.607,3.233-4.786,3.233-2.022,0-8.092-.336-11.325-.741h-.268a1.125,1.125,0,0,0-1.147,1.08v4.044a1.523,1.523,0,0,0,1.281,1.549,55.714,55.714,0,0,0,12.066,1.348c8.83,0,13.21-4.651,13.21-10.513,0-3.437-.805-6.811-6.469-10.245l-8.833-5.4c-1.684-1.01-2.693-1.684-2.693-2.763,0-2.089,1.412-2.83,4.648-2.83a99.634,99.634,0,0,1,11.123.808h.268c.674,0,1.08-.47,1.08-1.281V31.932a1.47,1.47,0,0,0-1.214-1.552,49.961,49.961,0,0,0-12-1.348c-8.558,0-12.807,3.37-12.807,10.111a11.1,11.1,0,0,0,5.664,9.3M223.745,47.3l-8.827-5.4c-1.687-1.01-2.7-1.684-2.7-2.763,0-2.089,1.415-2.83,4.648-2.83a99.573,99.573,0,0,1,11.12.808h.271c.674,0,1.08-.47,1.08-1.281V31.932a1.47,1.47,0,0,0-1.214-1.552,49.98,49.98,0,0,0-12-1.348c-8.561,0-12.807,3.37-12.807,10.111a11.109,11.109,0,0,0,5.664,9.3l9.232,5.664c2.159,1.348,2.965,2.156,2.965,3.437,0,1.821-.607,3.233-4.783,3.233-2.025,0-8.089-.336-11.325-.741h-.269a1.128,1.128,0,0,0-1.15,1.08v4.044a1.526,1.526,0,0,0,1.281,1.549A55.734,55.734,0,0,0,217,68.059c8.833,0,13.213-4.651,13.213-10.513,0-3.437-.808-6.811-6.472-10.245m28.85,20.758c10.584,0,16.11-7.143,16.11-16.784v-5.46c0-9.638-5.527-16.784-16.11-16.784s-16.107,7.146-16.107,16.784v5.46c0,9.641,5.527,16.784,16.107,16.784m-7.21-22.244c0-5.527,2.492-9.1,7.21-9.1s7.213,3.572,7.213,9.1v5.46c0,5.527-2.495,9.1-7.213,9.1s-7.21-3.575-7.21-9.1ZM122.237,98.438v-.607c0-11.929-9.034-15.57-19.413-15.57a91.937,91.937,0,0,0-13.213.878c-1.348.2-2.159.674-2.159,2.022v46.372a1.352,1.352,0,0,0,1.348,1.348h6.743a1.3,1.3,0,0,0,1.281-1.348V113.941c1.549.067,4.246.271,6,.271,10.379,0,19.413-3.843,19.413-15.775m-9.305,0c0,5.392-2.83,8.092-10.108,8.092-1.15,0-4.923-.137-6-.2V90.282c1.211-.134,4.581-.271,6-.271,6.738,0,10.108,2.159,10.108,7.82Zm17.257,34.444h6.268a1.356,1.356,0,0,0,1.281-1.415V82.935a1.3,1.3,0,0,0-1.281-1.348h-6.268a1.353,1.353,0,0,0-1.351,1.348v48.532a1.412,1.412,0,0,0,1.351,1.415m35.923-2.425v1.077a1.353,1.353,0,0,0,1.351,1.348h5.728a1.351,1.351,0,0,0,1.348-1.348V107.271c0-8.628-5.258-12.877-14.826-12.877a58.278,58.278,0,0,0-11.258,1.08c-.878.2-1.278.674-1.278,1.415V101.2c0,.945.537,1.147,1.211,1.147h.336a106.765,106.765,0,0,1,10.989-.54c3.977,0,5.929,1.077,5.929,5.462v2.965H161.4c-11.727,0-16.446,3.977-16.446,11.66v.271c0,9.1,6.066,11.255,11.66,11.255a18.242,18.242,0,0,0,9.5-2.965m-12.2-8.29V121.9c0-3.773,1.348-5.728,7.482-5.728h4.246v8.29a14.738,14.738,0,0,1-6.875,1.885c-3.37,0-4.853-.875-4.853-4.176m32.352.54c0,9.031,3.1,10.715,10.718,10.715a27.351,27.351,0,0,0,4.584-.473c.875-.134,1.281-.537,1.281-1.211v-4.246c0-.677-.537-1.013-1.415-1.013h-3.575c-2.425,0-2.626-.4-2.626-3.773V101.54h4.126a1.355,1.355,0,0,0,1.351-1.348V96.215a1.353,1.353,0,0,0-1.351-1.348h-4.126V87.925a.974.974,0,0,0-1.077-1.013h-.271l-6.271,1.08a1.448,1.448,0,0,0-1.348,1.345v5.53h-6.332a1.353,1.353,0,0,0-1.351,1.348v3.032a1.452,1.452,0,0,0,1.351,1.351l6.332.943Zm40.108,3.773H222.8c-2.428,0-2.629-.4-2.629-3.773V101.54h6.066a1.354,1.354,0,0,0,1.348-1.348V96.215a1.352,1.352,0,0,0-1.348-1.348h-6.066V87.925a.974.974,0,0,0-1.08-1.013h-.268l-6.268,1.08a1.446,1.446,0,0,0-1.348,1.345v5.53h-4.386a1.352,1.352,0,0,0-1.348,1.348v3.032a1.451,1.451,0,0,0,1.348,1.351l4.386.943v21.167c0,9.031,3.1,10.715,10.715,10.715a27.352,27.352,0,0,0,4.584-.473c.875-.134,1.281-.537,1.281-1.211v-4.246c0-.677-.537-1.013-1.415-1.013m39.836,4.987V109.491c0-8.561-1.955-15.1-11.66-15.1a17.464,17.464,0,0,0-10.919,3.236V96.215a1.353,1.353,0,0,0-1.351-1.348h-5.862a1.352,1.352,0,0,0-1.348,1.348v35.252a1.412,1.412,0,0,0,1.348,1.415h6.2a1.412,1.412,0,0,0,1.348-1.415v-27.1c2.83-1.485,5.328-2.425,7.616-2.425,5.191,0,5.731,1.684,5.731,7.546v21.975a1.412,1.412,0,0,0,1.348,1.415h6.2a1.411,1.411,0,0,0,1.345-1.415m38.015-14.491c.945,0,1.348-.607,1.348-1.687v-3.773c0-10.044-5.661-17.123-16.04-17.123-10.315,0-16.177,6.606-16.177,17.123V116.5c0,13.28,9.571,16.918,16.311,16.918a59.841,59.841,0,0,0,13.078-1.147c1.211-.2,1.412-.674,1.412-1.751v-4.447c0-.674-.54-1.013-1.214-1.013h-.2c-2.833.271-7.482.674-12.4.674-6.472,0-8.089-4.651-8.089-8.561v-.2Zm-21.9-6.606c0-5.325,3.029-8.29,7.21-8.29s7.079,3.032,7.079,8.29v.271H282.323Zm48.6-15.976a15.687,15.687,0,0,0-9.644,3.236V96.215a1.352,1.352,0,0,0-1.345-1.348h-5.862a1.353,1.353,0,0,0-1.351,1.348v35.252a1.412,1.412,0,0,0,1.351,1.415h6.2a1.409,1.409,0,0,0,1.345-1.415v-27.1a19.084,19.084,0,0,1,9.308-2.425,1.356,1.356,0,0,0,1.348-1.348V95.742a1.358,1.358,0,0,0-1.348-1.348M95.6,148.163H88.867a1.3,1.3,0,0,0-1.36,1.278V196.9a1.357,1.357,0,0,0,1.36,1.351H95.6a1.36,1.36,0,0,0,1.363-1.351V149.441a1.3,1.3,0,0,0-1.363-1.278m32.611,11.593a17.78,17.78,0,0,0-11.03,3.233v-1.415a1.359,1.359,0,0,0-1.363-1.345H109.9a1.358,1.358,0,0,0-1.36,1.345v35.255a1.42,1.42,0,0,0,1.36,1.418h6.265a1.418,1.418,0,0,0,1.36-1.418v-27.1c2.863-1.485,5.381-2.425,7.695-2.425,5.241,0,5.789,1.684,5.789,7.546v21.975a1.42,1.42,0,0,0,1.36,1.418h6.262a1.421,1.421,0,0,0,1.363-1.418V174.854c0-8.561-1.973-15.1-11.777-15.1m41.937,18.267-8.92-5.392c-1.7-1.013-2.725-1.687-2.725-2.763,0-2.089,1.433-2.83,4.7-2.83a100.812,100.812,0,0,1,11.231.808h.271c.68,0,1.091-.47,1.091-1.281v-3.907a1.475,1.475,0,0,0-1.226-1.552,50.813,50.813,0,0,0-12.121-1.348c-8.64,0-12.935,3.37-12.935,10.111a11.108,11.108,0,0,0,5.719,9.305l9.329,5.661c2.18,1.348,2.994,2.153,2.994,3.437,0,1.818-.613,3.236-4.835,3.236-2.04,0-8.167-.338-11.433-.741h-.274a1.13,1.13,0,0,0-1.158,1.077v4.044a1.514,1.514,0,0,0,1.293,1.544,56.526,56.526,0,0,0,12.191,1.354c8.914,0,13.341-4.651,13.341-10.513,0-3.437-.817-6.808-6.533-10.248m35.4,13.82h-3.61c-2.451,0-2.655-.4-2.655-3.776V166.9h6.128a1.359,1.359,0,0,0,1.363-1.348v-3.977a1.359,1.359,0,0,0-1.363-1.345h-6.128v-6.945a.978.978,0,0,0-1.091-1.01h-.268l-6.332,1.077a1.458,1.458,0,0,0-1.363,1.348v5.53h-6.4a1.361,1.361,0,0,0-1.363,1.345v3.035a1.46,1.46,0,0,0,1.363,1.351l6.4.94v21.167c0,9.028,3.131,10.718,10.826,10.718a28.158,28.158,0,0,0,4.628-.47c.887-.137,1.293-.54,1.293-1.22v-4.243c0-.674-.543-1.01-1.427-1.01m17.426-31.613h-6.262a1.359,1.359,0,0,0-1.363,1.345v35.255a1.421,1.421,0,0,0,1.363,1.418h6.262a1.42,1.42,0,0,0,1.36-1.418V161.574a1.358,1.358,0,0,0-1.36-1.345m.2-13.682h-6.606a1.421,1.421,0,0,0-1.43,1.348v5.929a1.421,1.421,0,0,0,1.43,1.348h6.606a1.357,1.357,0,0,0,1.36-1.348v-5.929a1.357,1.357,0,0,0-1.36-1.348m32.27,45.3h-3.607c-2.451,0-2.658-.4-2.658-3.776V166.9h6.128a1.361,1.361,0,0,0,1.363-1.348v-3.977a1.361,1.361,0,0,0-1.363-1.345H249.19v-6.945a.977.977,0,0,0-1.088-1.01h-.274l-6.329,1.077a1.458,1.458,0,0,0-1.363,1.348v5.53h-6.4a1.359,1.359,0,0,0-1.363,1.345v3.035a1.458,1.458,0,0,0,1.363,1.351l6.4.94v21.167c0,9.028,3.134,10.718,10.823,10.718a28.226,28.226,0,0,0,4.634-.47c.884-.137,1.293-.54,1.293-1.22v-4.243c0-.674-.546-1.01-1.43-1.01m39.687-31.613H288.88a1.413,1.413,0,0,0-1.36,1.412v26.965c-1.908,1.01-5.177,2.7-7.695,2.7a5.945,5.945,0,0,1-4.222-1.214c-1.29-1.147-1.567-3.1-1.567-6.469V161.641a1.413,1.413,0,0,0-1.36-1.412h-6.262a1.415,1.415,0,0,0-1.363,1.412V183.62c0,5.594.887,9.775,3.405,12.267,1.975,1.955,4.969,2.825,8.375,2.825a17.687,17.687,0,0,0,10.689-3.362V196.9a1.357,1.357,0,0,0,1.36,1.351h6.262A1.36,1.36,0,0,0,296.5,196.9V161.641a1.415,1.415,0,0,0-1.363-1.412m32.27,31.613h-3.607c-2.454,0-2.655-.4-2.655-3.776V166.9h6.128a1.357,1.357,0,0,0,1.36-1.348v-3.977a1.356,1.356,0,0,0-1.36-1.345H321.15v-6.945a.979.979,0,0,0-1.088-1.01h-.271l-6.332,1.077A1.458,1.458,0,0,0,312.1,154.7v5.53h-6.4a1.359,1.359,0,0,0-1.363,1.345v3.035a1.458,1.458,0,0,0,1.363,1.351l6.4.94v21.167c0,9.028,3.131,10.718,10.826,10.718a28.221,28.221,0,0,0,4.628-.47c.884-.137,1.293-.54,1.293-1.22v-4.243c0-.674-.543-1.01-1.43-1.01" transform="translate(167.73 33.446)"/>
    </g>
  </g>
</svg>
