<svg id="Gruppe_207560" data-name="Gruppe 207560" xmlns="http://www.w3.org/2000/svg" width="500" height="232.227" viewBox="0 0 500 232.227">
  <defs>
    <style>
      .cls-1 {
        fill: #5b6065;
      }

      .cls-2 {
        fill: #b1073a;
      }

      .cls-3 {
        fill: #f7a900;
      }

      .cls-4 {
        fill: #de6207;
      }

      .cls-5 {
        fill: #fff;
      }

      .cls-6 {
        fill: none;
      }
    </style>
  </defs>
  <g id="Gruppe_207559" data-name="Gruppe 207559">
    <path id="Pfad_132534" data-name="Pfad 132534" class="cls-1" d="M506.364,100.715a1.3,1.3,0,0,0-1.35,1.279v47.449a1.361,1.361,0,0,0,1.35,1.346h6.679a1.353,1.353,0,0,0,1.35-1.346V128.819h19.135v20.624a1.361,1.361,0,0,0,1.349,1.346h6.679a1.353,1.353,0,0,0,1.349-1.346V101.994a1.3,1.3,0,0,0-1.349-1.279h-6.679a1.3,1.3,0,0,0-1.349,1.279v18.6H514.392v-18.6a1.3,1.3,0,0,0-1.35-1.279ZM565.679,112.3a57.807,57.807,0,0,0-11.252,1.083c-.878.2-1.281.67-1.281,1.412v4.311c0,.946.538,1.15,1.211,1.15h.336a106.125,106.125,0,0,1,10.987-.544c3.975,0,5.931,1.082,5.931,5.461v2.964h-4.246c-11.731,0-16.448,3.978-16.448,11.662v.27c0,9.1,6.069,11.257,11.662,11.257a18.3,18.3,0,0,0,9.506-2.965v1.076a1.349,1.349,0,0,0,1.345,1.345h5.731a1.351,1.351,0,0,0,1.35-1.345V125.179c0-8.628-5.262-12.876-14.829-12.876Zm35.047,0c-8.56,0-12.8,3.37-12.8,10.111a11.1,11.1,0,0,0,5.661,9.3l9.235,5.661c2.153,1.349,2.966,2.157,2.966,3.436,0,1.819-.607,3.237-4.79,3.237-2.023,0-8.09-.338-11.322-.744H589.4a1.126,1.126,0,0,0-1.141,1.079v4.042a1.535,1.535,0,0,0,1.281,1.556,55.913,55.913,0,0,0,12.061,1.345c8.832,0,13.212-4.652,13.212-10.517,0-3.436-.805-6.8-6.466-10.239l-8.832-5.4c-1.685-1.012-2.694-1.687-2.694-2.765,0-2.091,1.413-2.835,4.649-2.835a98.888,98.888,0,0,1,11.119.813h.27c.673,0,1.079-.471,1.079-1.283V115.2a1.467,1.467,0,0,0-1.215-1.552,49.92,49.92,0,0,0-11.994-1.349Zm32.955,0c-8.558,0-12.8,3.37-12.8,10.111a11.113,11.113,0,0,0,5.662,9.3l9.236,5.661c2.157,1.349,2.964,2.157,2.964,3.436,0,1.819-.608,3.237-4.781,3.237-2.026,0-8.095-.338-11.326-.744h-.27a1.13,1.13,0,0,0-1.149,1.079v4.042a1.535,1.535,0,0,0,1.281,1.556,55.947,55.947,0,0,0,12.066,1.345c8.829,0,13.212-4.652,13.212-10.517,0-3.436-.81-6.8-6.471-10.239l-8.827-5.4c-1.69-1.012-2.7-1.687-2.7-2.765,0-2.091,1.418-2.835,4.654-2.835a99.1,99.1,0,0,1,11.123.813h.266c.673,0,1.079-.471,1.079-1.283V115.2a1.467,1.467,0,0,0-1.216-1.552,49.923,49.923,0,0,0-12-1.349Zm36.47,0c-10.582,0-16.108,7.148-16.108,16.784v5.457c0,9.641,5.526,16.784,16.108,16.784s16.108-7.142,16.108-16.784v-5.457c0-9.637-5.527-16.784-16.108-16.784m0,7.687c4.716,0,7.213,3.57,7.213,9.1v5.457c0,5.527-2.5,9.1-7.213,9.1s-7.212-3.57-7.212-9.1v-5.457c0-5.528,2.493-9.1,7.212-9.1M567.364,134.072h4.246v8.292a14.741,14.741,0,0,1-6.873,1.885c-3.368,0-4.856-.871-4.856-4.175v-.27c0-3.774,1.349-5.732,7.485-5.732Zm-19.61,30.779a1.361,1.361,0,0,0-1.349,1.35v48.532a1.405,1.405,0,0,0,1.349,1.411h6.262a1.352,1.352,0,0,0,1.281-1.411V166.2a1.3,1.3,0,0,0-1.281-1.349Zm-27.369.676a91.485,91.485,0,0,0-13.207.88c-1.35.2-2.164.675-2.164,2.021V214.8a1.354,1.354,0,0,0,1.35,1.345h6.74a1.3,1.3,0,0,0,1.286-1.345V197.208c1.545.068,4.24.27,5.992.27,10.381,0,19.413-3.842,19.413-15.776v-.6c0-11.928-9.03-15.572-19.413-15.572Zm91.059,4.651-6.271,1.079a1.453,1.453,0,0,0-1.349,1.35v5.524h-6.329a1.361,1.361,0,0,0-1.354,1.35v3.03a1.451,1.451,0,0,0,1.354,1.353l6.329.942v21.163c0,9.03,3.1,10.717,10.721,10.717a27.584,27.584,0,0,0,4.582-.473c.878-.134,1.281-.538,1.281-1.212v-4.244c0-.673-.539-1.013-1.415-1.013h-3.574c-2.431,0-2.626-.4-2.626-3.772V184.81h4.124a1.361,1.361,0,0,0,1.35-1.35v-3.976a1.353,1.353,0,0,0-1.35-1.35h-4.124v-6.944a.976.976,0,0,0-1.08-1.009Zm24.94,0-6.271,1.079a1.449,1.449,0,0,0-1.346,1.35v5.524H624.38a1.361,1.361,0,0,0-1.35,1.35v3.03a1.449,1.449,0,0,0,1.35,1.353l4.388.942v21.163c0,9.03,3.1,10.717,10.713,10.717a27.521,27.521,0,0,0,4.582-.473c.878-.134,1.281-.538,1.281-1.212v-4.244c0-.673-.538-1.013-1.415-1.013h-3.57c-2.429,0-2.626-.4-2.626-3.772V184.81H643.8a1.36,1.36,0,0,0,1.349-1.35v-3.976a1.361,1.361,0,0,0-1.349-1.35h-6.065v-6.944a.974.974,0,0,0-1.08-1.009Zm-116,3.1c6.738,0,10.115,2.163,10.115,7.824v.6c0,5.4-2.833,8.094-10.115,8.094q-3-.049-5.993-.2V173.55c1.21-.136,4.58-.274,5.993-.274m56.888,4.384a57.919,57.919,0,0,0-11.256,1.084c-.874.2-1.28.67-1.28,1.411v4.312c0,.945.533,1.149,1.207,1.149h.34a106.163,106.163,0,0,1,10.987-.544c3.978,0,5.931,1.082,5.931,5.461V193.5h-4.25c-11.728,0-16.44,3.978-16.44,11.658v.27c0,9.1,6.063,11.256,11.658,11.256a18.247,18.247,0,0,0,9.5-2.969V214.8a1.353,1.353,0,0,0,1.353,1.345h5.723A1.347,1.347,0,0,0,592.1,214.8v-24.26c0-8.628-5.257-12.876-14.825-12.876Zm94.836,0a17.465,17.465,0,0,0-10.921,3.237v-1.415a1.353,1.353,0,0,0-1.345-1.35h-5.87a1.359,1.359,0,0,0-1.349,1.35v35.251a1.407,1.407,0,0,0,1.349,1.411h6.2a1.406,1.406,0,0,0,1.345-1.411V187.637c2.833-1.481,5.332-2.425,7.621-2.425,5.187,0,5.727,1.685,5.727,7.55v21.973a1.41,1.41,0,0,0,1.35,1.411h6.2a1.407,1.407,0,0,0,1.345-1.411V192.762c0-8.562-1.955-15.1-11.658-15.1Zm34.981,0c-10.313,0-16.174,6.6-16.174,17.122v4.989c0,13.28,9.563,16.918,16.308,16.918a60.017,60.017,0,0,0,13.078-1.145c1.213-.2,1.411-.676,1.411-1.755v-4.445c0-.674-.542-1.014-1.216-1.014h-.2c-2.831.272-7.48.672-12.4.672-6.471,0-8.095-4.652-8.095-8.559v-.2h21.974c.945,0,1.35-.61,1.35-1.689v-3.772c0-10.041-5.659-17.122-16.038-17.122m41.385,0a15.683,15.683,0,0,0-9.641,3.237v-1.415a1.36,1.36,0,0,0-1.345-1.35h-5.865a1.36,1.36,0,0,0-1.354,1.35v35.251a1.409,1.409,0,0,0,1.354,1.411h6.2a1.406,1.406,0,0,0,1.345-1.411V187.637a19.1,19.1,0,0,1,9.306-2.425,1.352,1.352,0,0,0,1.349-1.346v-4.856a1.359,1.359,0,0,0-1.349-1.349Zm-41.385,7.687c4.175,0,7.076,3.03,7.076,8.288v.27H699.879v-.27C699.879,188.306,702.907,185.346,707.089,185.346ZM578.954,199.429h4.25v8.292a14.716,14.716,0,0,1-6.873,1.889c-3.368,0-4.851-.876-4.851-4.18v-.27c0-3.774,1.343-5.732,7.476-5.732Zm55.182,30.382a1.415,1.415,0,0,0-1.424,1.345v5.935a1.417,1.417,0,0,0,1.424,1.35h6.607a1.36,1.36,0,0,0,1.358-1.35v-5.935a1.355,1.355,0,0,0-1.358-1.345Zm-127.7,1.615a1.306,1.306,0,0,0-1.362,1.281v47.449a1.36,1.36,0,0,0,1.362,1.349h6.741a1.36,1.36,0,0,0,1.362-1.349V232.712a1.306,1.306,0,0,0-1.362-1.281ZM615.49,235.54l-6.335,1.075a1.452,1.452,0,0,0-1.362,1.35V243.5h-6.4a1.36,1.36,0,0,0-1.362,1.35v3.03a1.455,1.455,0,0,0,1.362,1.345l6.4.946v21.164c0,9.029,3.128,10.712,10.821,10.712a28.053,28.053,0,0,0,4.632-.465c.886-.138,1.29-.542,1.29-1.215v-4.251c0-.673-.543-1.009-1.428-1.009H619.5c-2.451,0-2.657-.4-2.657-3.772V250.167h6.127a1.36,1.36,0,0,0,1.366-1.35v-3.971a1.359,1.359,0,0,0-1.366-1.35h-6.127V236.55a.976.976,0,0,0-1.088-1.009Zm49.9,0-6.337,1.075a1.459,1.459,0,0,0-1.362,1.35V243.5h-6.4a1.36,1.36,0,0,0-1.363,1.35v3.03a1.451,1.451,0,0,0,1.363,1.345l6.4.946v21.164c0,9.029,3.133,10.712,10.83,10.712a28.17,28.17,0,0,0,4.632-.465c.882-.138,1.286-.542,1.286-1.215v-4.251c0-.673-.54-1.009-1.424-1.009h-3.606c-2.455,0-2.66-.4-2.66-3.772V250.167h6.126a1.36,1.36,0,0,0,1.367-1.35v-3.971a1.36,1.36,0,0,0-1.367-1.35h-6.126V236.55a.98.98,0,0,0-1.089-1.009Zm71.949,0-6.324,1.075a1.462,1.462,0,0,0-1.366,1.35V243.5h-6.4a1.36,1.36,0,0,0-1.358,1.35v3.03a1.451,1.451,0,0,0,1.358,1.345l6.4.946v21.164c0,9.029,3.132,10.712,10.829,10.712a28.108,28.108,0,0,0,4.629-.465c.883-.138,1.29-.542,1.29-1.215v-4.251c0-.673-.547-1.009-1.428-1.009h-3.611c-2.45,0-2.656-.4-2.656-3.772V250.167h6.127a1.36,1.36,0,0,0,1.362-1.35v-3.971a1.359,1.359,0,0,0-1.362-1.35H738.7V236.55a.978.978,0,0,0-1.083-1.009Zm-191.56,7.484a17.757,17.757,0,0,0-11.029,3.234v-1.411a1.361,1.361,0,0,0-1.362-1.35h-5.927a1.36,1.36,0,0,0-1.358,1.35v35.246a1.415,1.415,0,0,0,1.358,1.415h6.267a1.419,1.419,0,0,0,1.362-1.415V253c2.856-1.481,5.379-2.427,7.69-2.427,5.243,0,5.791,1.686,5.791,7.551V280.1a1.415,1.415,0,0,0,1.358,1.415h6.262a1.418,1.418,0,0,0,1.367-1.415V258.123c0-8.56-1.972-15.094-11.779-15.094Zm34.241,0c-8.644,0-12.937,3.368-12.937,10.115a11.093,11.093,0,0,0,5.719,9.3l9.331,5.657c2.178,1.349,2.992,2.157,2.992,3.44,0,1.82-.61,3.237-4.83,3.237q-5.734-.129-11.439-.744h-.274a1.127,1.127,0,0,0-1.154,1.075v4.046a1.519,1.519,0,0,0,1.29,1.547A56.9,56.9,0,0,0,580.9,282.04c8.915,0,13.339-4.649,13.339-10.508,0-3.44-.818-6.809-6.532-10.247L578.79,255.9c-1.706-1.014-2.726-1.689-2.726-2.76,0-2.1,1.43-2.839,4.7-2.839a101.173,101.173,0,0,1,11.226.809h.279c.678,0,1.092-.471,1.092-1.281v-3.906a1.48,1.48,0,0,0-1.232-1.554,51.168,51.168,0,0,0-12.115-1.345Zm54.255.474a1.36,1.36,0,0,0-1.362,1.35v35.246a1.416,1.416,0,0,0,1.362,1.415h6.263a1.42,1.42,0,0,0,1.362-1.415V244.848a1.36,1.36,0,0,0-1.362-1.35Zm49.691,0a1.413,1.413,0,0,0-1.358,1.415v21.969c0,5.593.888,9.779,3.4,12.267,1.974,1.956,4.97,2.831,8.375,2.831a17.687,17.687,0,0,0,10.687-3.366v1.545a1.355,1.355,0,0,0,1.358,1.35h6.262a1.354,1.354,0,0,0,1.362-1.35V244.914a1.414,1.414,0,0,0-1.362-1.415h-6.262a1.415,1.415,0,0,0-1.358,1.415v26.959c-1.906,1.01-5.179,2.7-7.695,2.7a5.96,5.96,0,0,1-4.221-1.215c-1.294-1.15-1.564-3.1-1.564-6.471V244.914a1.418,1.418,0,0,0-1.362-1.415Z" transform="translate(-249.824 -49.816)"/>
    <rect id="Rechteck_315" data-name="Rechteck 315" class="cls-2" width="202.636" height="202.65" transform="translate(0 28.951)"/>
    <rect id="Rechteck_316" data-name="Rechteck 316" class="cls-3" width="173.688" height="173.688" transform="translate(57.903)"/>
    <rect id="Rechteck_317" data-name="Rechteck 317" class="cls-4" width="144.734" height="144.738" transform="translate(57.903 28.949)"/>
    <path id="Pfad_132535" data-name="Pfad 132535" class="cls-5" d="M257.522,101.272h-6.672a1.3,1.3,0,0,0-1.352,1.281V150a1.35,1.35,0,0,0,1.352,1.346h6.672A1.35,1.35,0,0,0,258.867,150V102.553a1.3,1.3,0,0,0-1.346-1.281m-25.129,15.634c0,5.391-2.831,8.092-10.109,8.092-1.145,0-4.92-.136-6-.2v-16.04c1.216-.136,4.584-.272,6-.272,6.741,0,10.109,2.157,10.109,7.818Zm-10.109-16.174a92.016,92.016,0,0,0-13.209.873c-1.352.2-2.159.674-2.159,2.023V150a1.349,1.349,0,0,0,1.352,1.345h6.741A1.291,1.291,0,0,0,216.285,150V132.41l6,.266c10.381,0,19.413-3.84,19.413-15.77V116.3c0-11.928-9.029-15.566-19.413-15.566m-26.939.538h-6.671a1.3,1.3,0,0,0-1.352,1.281v18.6H168.182v-18.6a1.3,1.3,0,0,0-1.349-1.281H160.16a1.3,1.3,0,0,0-1.35,1.281V150a1.349,1.349,0,0,0,1.35,1.346h6.673A1.351,1.351,0,0,0,168.182,150V129.378h19.141V150a1.35,1.35,0,0,0,1.352,1.346h6.671A1.351,1.351,0,0,0,196.694,150V102.553a1.3,1.3,0,0,0-1.349-1.281" transform="translate(-78.561 -49.833)"/>
    <rect id="Rechteck_318" data-name="Rechteck 318" class="cls-6" width="500" height="232.227"/>
  </g>
</svg>
